<?xml version="1.0" encoding="utf-8"?>
<!-- Generator: Adobe Illustrator 22.1.0, SVG Export Plug-In . SVG Version: 6.00 Build 0)  -->
<svg version="1.1" id="Слой_1" xmlns="http://www.w3.org/2000/svg" xmlns:xlink="http://www.w3.org/1999/xlink" x="0px" y="0px"
	 viewBox="0 0 381 374" style="enable-background:new 0 0 381 374;" xml:space="preserve">
<style type="text/css">
	.st0{fill:#EE5555;}
</style>
<path class="st0" d="M353.192,143.392c-12.742-10.692-31.809-9.019-42.481,3.699l-28.686,33.945V82.604
	c0-8.25-3.431-16.239-9.412-21.92l-38.282-36.365c-5.643-5.361-13.038-8.314-20.821-8.314H50.234C33.563,16.005,20,29.568,20,46.239
	v283.525c0,16.671,13.563,30.234,30.234,30.234h201.559c16.671,0,30.234-13.563,30.234-30.234v-55.068
	c1.238-1.467,74.661-88.437,74.893-88.71C367.66,173.186,365.995,154.134,353.192,143.392z M221.559,39.984
	c40.321,38.302,37.458,35.503,38.214,36.489h-38.214V39.984z M261.87,329.764c0,5.557-4.521,10.078-10.078,10.078H50.234
	c-5.557,0-10.078-4.521-10.078-10.078V46.239c0-5.557,4.521-10.078,10.078-10.078h151.169V86.55c0,5.566,4.512,10.078,10.078,10.078
	h50.389v108.259c-4.329,5.122-39.088,46.254-42.846,50.7c-3.001,3.577-5.161,7.868-6.246,12.41l-9.366,39.208
	c-0.886,3.713,0.4,7.608,3.324,10.062c2.927,2.456,6.987,3.043,10.486,1.526l36.987-16.032c2.777-1.204,5.367-2.839,7.66-4.805
	V329.764L261.87,329.764z M237.899,264.479l15.438,12.954l-3.433,4.066c-0.999,1.192-2.283,2.149-3.711,2.768l-18.493,8.016
	l4.684-19.604c0.361-1.514,1.081-2.944,2.059-4.109L237.899,264.479z M266.339,262.032l-15.431-12.948
	c1.565-1.852,52.203-61.774,55.705-65.918l15.399,12.921L266.339,262.032z M341.498,173.007l-6.483,7.68l-15.391-12.915l6.505-7.698
	c3.554-4.235,9.883-4.787,14.107-1.242C344.545,162.446,345.02,168.81,341.498,173.007z"/>
<path class="st0" d="M171.167,76.472H70.388c-5.566,0-10.078,4.512-10.078,10.078c0,5.566,4.512,10.078,10.078,10.078h100.779
	c5.566,0,10.078-4.512,10.078-10.078C181.245,80.985,176.733,76.472,171.167,76.472z"/>
<path class="st0" d="M231.635,136.34H70.388c-5.566,0-10.078,4.512-10.078,10.078c0,5.566,4.512,10.078,10.078,10.078h161.247
	c5.566,0,10.078-4.512,10.078-10.078C241.713,140.853,237.201,136.34,231.635,136.34z"/>
<path class="st0" d="M231.635,198.08H70.388c-5.566,0-10.078,4.512-10.078,10.078c0,5.566,4.512,10.078,10.078,10.078h161.247
	c5.566,0,10.078-4.512,10.078-10.078C241.713,202.591,237.201,198.08,231.635,198.08z"/>
<path class="st0" d="M171.167,258.547H70.388c-5.566,0-10.078,4.512-10.078,10.078s4.512,10.078,10.078,10.078h100.779
	c5.566,0,10.078-4.512,10.078-10.078S176.733,258.547,171.167,258.547z"/>
<rect x="-570.62" y="399.595" style="fill:none;" width="0" height="5.063"/>
</svg>
